<?xml version="1.0" encoding="utf-8"?>
<!-- Generator: Adobe Illustrator 26.3.1, SVG Export Plug-In . SVG Version: 6.00 Build 0)  -->
<svg version="1.1" id="Layer_1" xmlns="http://www.w3.org/2000/svg" xmlns:xlink="http://www.w3.org/1999/xlink" x="0px" y="0px"
	 viewBox="0 0 32 32" style="enable-background:new 0 0 32 32;" xml:space="preserve">
<path d="M16,0c-4.3,0-4.9,0-6.6,0.1C7.7,0.2,6.5,0.4,5.5,0.8c-1.1,0.4-2,1-2.8,1.8C1.9,3.5,1.2,4.5,0.8,5.5c-0.4,1-0.7,2.2-0.7,3.9
	C0,11.1,0,11.7,0,16c0,4.3,0,4.9,0.1,6.6c0.1,1.7,0.3,2.9,0.7,3.9c0.4,1.1,1,1.9,1.8,2.8c0.9,0.9,1.8,1.4,2.8,1.8
	c1,0.4,2.2,0.7,3.9,0.7C11.1,32,11.7,32,16,32s4.9,0,6.6-0.1c1.7-0.1,2.9-0.3,3.9-0.7c1.1-0.4,2-1,2.8-1.8c0.9-0.9,1.4-1.8,1.8-2.8
	c0.4-1,0.7-2.2,0.7-3.9C32,20.9,32,20.3,32,16s0-4.9-0.1-6.6c-0.1-1.7-0.4-2.9-0.7-3.9c-0.4-1.1-1-2-1.8-2.8
	c-0.8-0.8-1.8-1.4-2.8-1.8c-1-0.4-2.2-0.7-3.9-0.7C20.9,0,20.3,0,16,0L16,0L16,0z M14.6,2.9H16c4.3,0,4.8,0,6.5,0.1
	c1.6,0.1,2.4,0.3,3,0.5c0.7,0.3,1.3,0.6,1.8,1.2s0.9,1.1,1.2,1.8C28.7,7.1,29,8,29,9.5c0.1,1.7,0.1,2.2,0.1,6.5s0,4.8-0.1,6.5
	c-0.1,1.6-0.3,2.4-0.5,3c-0.3,0.7-0.7,1.3-1.2,1.8c-0.6,0.6-1.1,0.9-1.8,1.2c-0.6,0.2-1.4,0.5-3,0.6c-1.7,0.1-2.2,0.1-6.5,0.1
	s-4.8,0-6.5-0.1c-1.6-0.1-2.4-0.3-3-0.6c-0.7-0.3-1.3-0.7-1.8-1.2c-0.5-0.5-0.9-1.1-1.2-1.8C3.3,24.9,3,24,3,22.5
	c-0.1-1.7-0.1-2.2-0.1-6.5c0-4.3,0-4.8,0.1-6.5C3,8,3.3,7.1,3.5,6.6c0.3-0.7,0.6-1.3,1.2-1.8s1.1-0.9,1.8-1.2C7.1,3.3,8,3,9.5,3
	C11,2.9,11.6,2.9,14.6,2.9C14.6,2.9,14.6,2.9,14.6,2.9z M24.5,5.5c-1.1,0-1.9,0.9-1.9,1.9s0.9,1.9,1.9,1.9l0,0
	c1.1,0,1.9-0.9,1.9-1.9S25.6,5.5,24.5,5.5z M16,7.8c-4.5-0.1-8.3,3.6-8.3,8.1c-0.1,4.5,3.6,8.3,8.1,8.3c0.1,0,0.2,0,0.3,0
	c4.5-0.1,8.2-3.8,8.1-8.3C24,11.4,20.4,7.9,16,7.8z M16,10.7c2.9,0,5.3,2.4,5.3,5.3S19,21.3,16,21.3c0,0,0,0,0,0
	c-2.9,0-5.3-2.4-5.3-5.3S13.1,10.7,16,10.7z"/>
</svg>
