<?xml version="1.0" encoding="utf-8"?>
<!-- Generator: Adobe Illustrator 26.3.1, SVG Export Plug-In . SVG Version: 6.00 Build 0)  -->
<svg version="1.1" id="Layer_1" xmlns="http://www.w3.org/2000/svg" xmlns:xlink="http://www.w3.org/1999/xlink" x="0px" y="0px"
	 viewBox="0 0 32 32" style="enable-background:new 0 0 32 32;" xml:space="preserve">
<path d="M6.3,0C2.8,0,0,2.8,0,6.3v19.5C0,29.2,2.8,32,6.3,32h19.5c3.4,0,6.3-2.8,6.3-6.3V6.3C32,2.8,29.2,0,25.7,0H6.3z M7.9,5.3
	c1.7,0,2.7,1.1,2.7,2.5c0,1.4-1,2.5-2.7,2.5h0c-1.6,0-2.7-1.1-2.7-2.5C5.1,6.4,6.2,5.3,7.9,5.3L7.9,5.3z M22.1,12
	c3.2,0,5.6,2.1,5.6,6.5v8.3h-4.8v-7.8c0-2-0.7-3.3-2.4-3.3c-1.3,0-2.1,0.9-2.5,1.8c-0.1,0.3-0.2,0.7-0.2,1.2v8.1h-4.8
	c0,0,0.1-13.2,0-14.5h4.8v2.1C18.4,13.4,19.5,12,22.1,12L22.1,12z M5.4,12.3h4.8v14.5H5.4C5.4,26.8,5.4,12.3,5.4,12.3z"/>
</svg>
