<?xml version="1.0" encoding="utf-8"?>
<!-- Generator: Adobe Illustrator 26.3.1, SVG Export Plug-In . SVG Version: 6.00 Build 0)  -->
<svg version="1.1" id="Layer_1" xmlns="http://www.w3.org/2000/svg" xmlns:xlink="http://www.w3.org/1999/xlink" x="0px" y="0px"
	 viewBox="0 0 121.5 110" style="enable-background:new 0 0 121.5 110;" xml:space="preserve">
<g>
	<path d="M48.1,67.3l-4.2,11.6c-1.6,1.8-3.7,3.3-6.1,4.4s-4.9,1.6-7.3,1.6c-3.4,0-6.3-0.9-8.8-2.6c-2.5-1.8-4.4-4.3-5.8-7.6
		c-1.4-3.3-2.1-7.2-2.1-11.8v-0.2c-3,0-5.9,0-8.9-0.1c0.5,3.4,1.4,6.6,2.8,9.4c2.1,4.6,5.2,8.1,9.1,10.7c3.9,2.5,8.5,3.8,13.8,3.8
		c2.2,0,4.3-0.4,6.6-1.2c2.2-0.8,4.2-1.8,5.9-3.2l5.2,3.7h1.5V67.3H48.1z"/>
	<path d="M13.7,52.7v-3c0-4.6,0.7-8.5,2.2-11.8c1.4-3.3,3.4-5.8,6-7.6c2.6-1.7,5.5-2.6,8.9-2.6c2.2,0,4.4,0.5,6.6,1.4
		c2.2,0.9,4.2,2.1,5.9,3.7l4.5,11.2h1.5V26.1h-1.5l-4.8,4.1c-1.7-1.3-3.7-2.3-5.8-3c-2.1-0.7-4.2-1.1-6.3-1.1
		c-5.2,0-9.9,1.3-13.9,3.8c-4,2.5-7.1,6.1-9.3,10.7c-1.7,3.6-2.8,7.7-3.1,12.1C7.6,52.7,10.7,52.7,13.7,52.7z"/>
</g>
<path d="M61.2,53.9V0h-0.5v53.9C60.9,53.9,61.1,53.9,61.2,53.9z"/>
<path d="M60.8,63.9V110h0.5V63.9C61.1,63.9,60.9,63.9,60.8,63.9z"/>
<g>
	<path d="M1.1,59.6c-0.3-0.2-0.6-0.5-0.8-0.9s-0.3-0.8-0.3-1.3s0.1-0.9,0.3-1.3c0.2-0.4,0.4-0.7,0.8-0.9s0.7-0.3,1.2-0.3
		c0.2,0,0.3,0,0.5,0.1s0.3,0.1,0.5,0.3l0.4-0.3h0.1v1.5H3.7l-0.4-0.9c-0.1-0.1-0.3-0.2-0.5-0.3c-0.2-0.1-0.4-0.1-0.5-0.1
		c-0.3,0-0.5,0.1-0.7,0.2s-0.4,0.4-0.5,0.6s-0.2,0.6-0.2,1V58c0,0.4,0.1,0.7,0.2,1c0.1,0.3,0.3,0.5,0.5,0.6s0.5,0.2,0.7,0.2
		c0.2,0,0.4,0,0.6-0.1c0.2-0.1,0.4-0.2,0.5-0.4l0.3-1h0.1v1.5H3.7l-0.4-0.3c-0.1,0.1-0.3,0.2-0.5,0.3S2.4,60,2.3,60
		C1.8,60,1.4,59.9,1.1,59.6z"/>
	<path d="M5.2,59.7l0.4-0.1v-4.4l-0.4-0.1V55h1v2.3c0.1-0.2,0.3-0.4,0.5-0.5s0.4-0.2,0.6-0.2c0.3,0,0.5,0.1,0.7,0.2s0.2,0.4,0.2,0.6
		v2.1l0.4,0.1v0.1H7.3v-0.1l0.4-0.1v-2.1c0-0.2,0-0.4-0.1-0.5c-0.1-0.1-0.2-0.2-0.4-0.2c-0.2,0-0.4,0.1-0.5,0.2
		c-0.2,0.1-0.3,0.3-0.5,0.5v2.1l0.4,0.1v0.1H5.2V59.7z"/>
	<path d="M9.8,59.7l0.4-0.1v-2.7l-0.4-0.1v-0.1h1v0.5c0.3-0.3,0.5-0.5,0.9-0.5c0.2,0,0.3,0,0.4,0.1c0.1,0.1,0.2,0.2,0.2,0.3
		c0,0.1,0,0.2-0.1,0.3c-0.1,0.1-0.2,0.1-0.3,0.1c-0.1,0-0.2,0-0.3-0.1c0-0.1,0.1-0.1,0.1-0.2c0-0.1,0-0.1-0.1-0.2s-0.1-0.1-0.2-0.1
		c-0.1,0-0.2,0-0.3,0.1c-0.1,0.1-0.2,0.2-0.3,0.4v2.2l0.5,0.1v0.1H9.8V59.7z"/>
	<path d="M13.2,59.8v-0.1l0.4-0.1v-2.7l-0.4-0.1v-0.1h1v2.9l0.4,0.1v0.1H13.2z M13.6,55.9c-0.1-0.1-0.1-0.2-0.1-0.3
		c0-0.1,0-0.2,0.1-0.3c0.1-0.1,0.2-0.1,0.3-0.1c0.1,0,0.2,0,0.3,0.1c0.1,0.1,0.1,0.2,0.1,0.3c0,0.1,0,0.2-0.1,0.3S14,56,13.9,56
		C13.8,56,13.7,56,13.6,55.9z"/>
	<path d="M16.2,59.7c-0.2-0.1-0.3-0.3-0.3-0.5c0-0.1,0-0.2,0.1-0.3c0.1-0.1,0.1-0.1,0.2-0.1c0.1,0,0.1,0,0.2,0.1s0.1,0.1,0.1,0.2
		c-0.1,0.1-0.1,0.2-0.1,0.3c0,0.1,0.1,0.2,0.2,0.3c0.1,0.1,0.3,0.1,0.5,0.1c0.3,0,0.5-0.1,0.6-0.2c0.2-0.1,0.2-0.3,0.2-0.5
		c0-0.1,0-0.2-0.1-0.3c-0.1-0.1-0.2-0.1-0.4-0.2l-0.9-0.3C16.2,58.2,16,58,16,57.7c0-0.3,0.1-0.5,0.3-0.7c0.2-0.2,0.5-0.3,0.8-0.3
		c0.3,0,0.5,0.1,0.7,0.2c0.2,0.1,0.3,0.3,0.3,0.6c0,0.1,0,0.2-0.1,0.2c-0.1,0.1-0.1,0.1-0.2,0.1s-0.2,0-0.2-0.1s-0.1-0.1-0.1-0.2
		c0.1,0,0.1-0.1,0.1-0.1c0,0,0-0.1,0-0.2c0-0.1,0-0.2-0.1-0.3c-0.1-0.1-0.2-0.1-0.5-0.1c-0.2,0-0.3,0-0.5,0.1
		c-0.1,0.1-0.2,0.1-0.3,0.2c-0.1,0.1-0.1,0.2-0.1,0.3c0,0.1,0,0.2,0.1,0.2c0.1,0.1,0.2,0.1,0.4,0.2l0.8,0.3c0.2,0.1,0.3,0.2,0.4,0.3
		c0.1,0.1,0.1,0.3,0.1,0.5c0,0.3-0.1,0.5-0.3,0.7c-0.2,0.2-0.5,0.3-0.8,0.3C16.7,59.9,16.5,59.8,16.2,59.7z"/>
	<path d="M20,59.7c-0.2-0.1-0.2-0.3-0.2-0.6v-2.2l-0.4-0.1v-0.1h0.4v-0.5l0.6-0.1v0.6h0.8v0.1l-0.8,0.1v2.1c0,0.4,0.2,0.6,0.5,0.6
		c0.1,0,0.1,0,0.2,0c0.1,0,0.1,0,0.1-0.1s0.1,0,0.1,0l0.1,0.1c-0.2,0.2-0.4,0.2-0.6,0.2C20.4,59.9,20.2,59.8,20,59.7z"/>
	<path d="M22.3,59.8v-0.1l0.4-0.1v-2.7l-0.4-0.1v-0.1h1v2.9l0.4,0.1v0.1H22.3z M22.7,55.9c-0.1-0.1-0.1-0.2-0.1-0.3
		c0-0.1,0-0.2,0.1-0.3c0.1-0.1,0.2-0.1,0.3-0.1c0.1,0,0.2,0,0.3,0.1c0.1,0.1,0.1,0.2,0.1,0.3c0,0.1,0,0.2-0.1,0.3S23.1,56,23,56
		C22.9,56,22.8,56,22.7,55.9z"/>
	<path d="M24.9,59.7l0.4-0.1v-2.7l-0.4-0.1v-0.1h1v0.6c0.1-0.2,0.3-0.4,0.5-0.5s0.4-0.2,0.6-0.2c0.3,0,0.5,0.1,0.7,0.2
		s0.2,0.4,0.2,0.6v2.1l0.4,0.1v0.1H27v-0.1l0.4-0.1v-2.1c0-0.2,0-0.4-0.1-0.5c-0.1-0.1-0.2-0.2-0.4-0.2c-0.2,0-0.4,0.1-0.5,0.2
		c-0.2,0.1-0.3,0.3-0.5,0.5v2.1l0.4,0.1v0.1h-1.4V59.7z"/>
	<path d="M30.3,59.7c-0.2-0.1-0.4-0.3-0.6-0.6c-0.1-0.2-0.2-0.5-0.2-0.8c0-0.3,0.1-0.6,0.2-0.8s0.3-0.4,0.6-0.6
		c0.2-0.1,0.5-0.2,0.8-0.2c0.3,0,0.5,0.1,0.7,0.2c0.2,0.1,0.4,0.3,0.5,0.5c0.1,0.2,0.2,0.4,0.2,0.7h-2.2v0.6c0,0.4,0.1,0.6,0.2,0.9
		c0.2,0.2,0.4,0.3,0.7,0.3c0.3,0,0.5-0.1,0.7-0.2c0.2-0.2,0.3-0.4,0.4-0.6h0.1c-0.1,0.3-0.2,0.5-0.4,0.7c-0.2,0.2-0.5,0.3-0.8,0.3
		C30.9,59.9,30.6,59.8,30.3,59.7z M31.8,57.8c0-0.3-0.1-0.6-0.2-0.8c-0.1-0.2-0.3-0.3-0.5-0.3c-0.3,0-0.5,0.1-0.6,0.3
		c-0.1,0.2-0.2,0.4-0.3,0.8H31.8z"/>
	<path d="M36.8,59.6l-0.5,0.3h-0.1v-1.5h0.1l0.5,1.1c0.3,0.2,0.7,0.4,1.1,0.4c0.4,0,0.6-0.1,0.9-0.3c0.2-0.2,0.3-0.4,0.3-0.8
		c0-0.2-0.1-0.4-0.2-0.6c-0.1-0.1-0.4-0.3-0.7-0.3l-1-0.3c-0.3-0.1-0.6-0.2-0.8-0.5c-0.2-0.2-0.3-0.5-0.3-0.8c0-0.3,0.1-0.5,0.2-0.7
		c0.1-0.2,0.3-0.4,0.5-0.5c0.2-0.1,0.5-0.2,0.8-0.2c0.4,0,0.7,0.1,1,0.2l0.4-0.2h0.1v1.2H39l-0.4-0.9c-0.3-0.1-0.6-0.2-1-0.2
		c-0.3,0-0.6,0.1-0.8,0.3c-0.2,0.2-0.3,0.4-0.3,0.7c0,0.2,0.1,0.4,0.2,0.5s0.4,0.2,0.6,0.3l1.1,0.3c0.3,0.1,0.6,0.2,0.8,0.5
		c0.2,0.2,0.3,0.5,0.3,1c0,0.4-0.1,0.8-0.4,1c-0.3,0.3-0.6,0.4-1.1,0.4C37.5,60,37.1,59.9,36.8,59.6z"/>
	<path d="M41.3,59.7C41.1,59.5,41,59.3,41,59v-2.1l-0.4-0.1v-0.1h1V59c0,0.2,0,0.4,0.1,0.5c0.1,0.1,0.2,0.2,0.4,0.2
		c0.2,0,0.4-0.1,0.5-0.2s0.3-0.3,0.5-0.5v-2.1l-0.4-0.1v-0.1h1v2.9l0.4,0.1v0.1h-1v-0.6c-0.1,0.2-0.3,0.4-0.5,0.5
		c-0.2,0.1-0.4,0.2-0.7,0.2C41.7,59.9,41.5,59.8,41.3,59.7z"/>
	<path d="M45.7,59.7c-0.2-0.1-0.3-0.3-0.3-0.5c0-0.1,0-0.2,0.1-0.3c0.1-0.1,0.1-0.1,0.2-0.1c0.1,0,0.1,0,0.2,0.1s0.1,0.1,0.1,0.2
		c-0.1,0.1-0.1,0.2-0.1,0.3c0,0.1,0.1,0.2,0.2,0.3c0.1,0.1,0.3,0.1,0.5,0.1c0.3,0,0.5-0.1,0.6-0.2c0.2-0.1,0.2-0.3,0.2-0.5
		c0-0.1,0-0.2-0.1-0.3c-0.1-0.1-0.2-0.1-0.4-0.2L46,58.4c-0.4-0.1-0.5-0.4-0.5-0.7c0-0.3,0.1-0.5,0.3-0.7c0.2-0.2,0.5-0.3,0.8-0.3
		c0.3,0,0.5,0.1,0.7,0.2c0.2,0.1,0.3,0.3,0.3,0.6c0,0.1,0,0.2-0.1,0.2c-0.1,0.1-0.1,0.1-0.2,0.1s-0.2,0-0.2-0.1S47,57.6,47,57.5
		c0.1,0,0.1-0.1,0.1-0.1c0,0,0-0.1,0-0.2c0-0.1,0-0.2-0.1-0.3c-0.1-0.1-0.2-0.1-0.5-0.1c-0.2,0-0.3,0-0.5,0.1
		c-0.1,0.1-0.2,0.1-0.3,0.2c-0.1,0.1-0.1,0.2-0.1,0.3c0,0.1,0,0.2,0.1,0.2c0.1,0.1,0.2,0.1,0.4,0.2l0.8,0.3c0.2,0.1,0.3,0.2,0.4,0.3
		c0.1,0.1,0.1,0.3,0.1,0.5c0,0.3-0.1,0.5-0.3,0.7c-0.2,0.2-0.5,0.3-0.8,0.3C46.2,59.9,46,59.8,45.7,59.7z"/>
	<path d="M49.3,59.7c-0.2-0.1-0.2-0.3-0.2-0.6c0-0.4,0.2-0.6,0.5-0.8c0.3-0.2,0.7-0.2,1.1-0.2H51v-0.5c0-0.2,0-0.4-0.1-0.5
		c0-0.1-0.1-0.2-0.2-0.2c-0.1,0-0.2-0.1-0.4-0.1c-0.2,0-0.3,0-0.4,0.1s-0.1,0.2-0.1,0.3c0,0.1,0.1,0.2,0.2,0.2c0,0.1,0,0.2-0.1,0.3
		c-0.1,0.1-0.2,0.1-0.3,0.1c-0.1,0-0.2,0-0.3-0.1c-0.1-0.1-0.1-0.2-0.1-0.3c0-0.2,0.1-0.4,0.3-0.6c0.2-0.1,0.5-0.2,0.9-0.2
		c0.8,0,1.2,0.3,1.2,1v1.7c0,0.1,0,0.2,0.1,0.2c0,0,0.1,0.1,0.2,0.1c0.1,0,0.1,0,0.2-0.1c0,0,0.1-0.1,0.1-0.2h0.1
		c0,0.1,0,0.2-0.1,0.3s-0.2,0.1-0.4,0.1c-0.2,0-0.3-0.1-0.5-0.2S51,59.5,51,59.2c-0.1,0.2-0.2,0.4-0.4,0.5c-0.2,0.1-0.4,0.2-0.7,0.2
		C49.7,59.9,49.5,59.8,49.3,59.7z M50.6,59.5c0.1-0.1,0.2-0.2,0.3-0.3C51,59.1,51,59,51,58.8v-0.6h-0.4c-0.3,0-0.6,0.1-0.7,0.2
		s-0.2,0.4-0.2,0.6c0,0.2,0.1,0.4,0.2,0.5c0.1,0.1,0.3,0.1,0.5,0.1C50.4,59.6,50.5,59.6,50.6,59.5z"/>
	<path d="M53.1,59.7l0.4-0.1v-2.7l-0.4-0.1v-0.1h1v0.6c0.1-0.2,0.3-0.4,0.5-0.5s0.4-0.2,0.6-0.2c0.3,0,0.5,0.1,0.7,0.2
		s0.2,0.4,0.2,0.6v2.1l0.4,0.1v0.1h-1.4v-0.1l0.4-0.1v-2.1c0-0.2,0-0.4-0.1-0.5c-0.1-0.1-0.2-0.2-0.4-0.2c-0.2,0-0.4,0.1-0.5,0.2
		c-0.2,0.1-0.3,0.3-0.5,0.5v2.1l0.4,0.1v0.1h-1.4V59.7z"/>
	<path d="M57.8,59.7l0.4-0.1v-2.7l-0.4-0.1v-0.1h1v0.6c0.1-0.2,0.3-0.4,0.5-0.5s0.4-0.2,0.6-0.2c0.3,0,0.5,0.1,0.7,0.2
		s0.2,0.4,0.2,0.6v2.1l0.4,0.1v0.1h-1.4v-0.1l0.4-0.1v-2.1c0-0.2,0-0.4-0.1-0.5c-0.1-0.1-0.2-0.2-0.4-0.2c-0.2,0-0.4,0.1-0.5,0.2
		c-0.2,0.1-0.3,0.3-0.5,0.5v2.1l0.4,0.1v0.1h-1.4V59.7z"/>
	<path d="M63.2,59.7c-0.2-0.1-0.4-0.3-0.6-0.6c-0.1-0.2-0.2-0.5-0.2-0.8c0-0.3,0.1-0.6,0.2-0.8s0.3-0.4,0.6-0.6
		c0.2-0.1,0.5-0.2,0.8-0.2c0.3,0,0.5,0.1,0.7,0.2c0.2,0.1,0.4,0.3,0.5,0.5c0.1,0.2,0.2,0.4,0.2,0.7h-2.2v0.6c0,0.4,0.1,0.6,0.2,0.9
		c0.2,0.2,0.4,0.3,0.7,0.3c0.3,0,0.5-0.1,0.7-0.2c0.2-0.2,0.3-0.4,0.4-0.6h0.1c-0.1,0.3-0.2,0.5-0.4,0.7c-0.2,0.2-0.5,0.3-0.8,0.3
		C63.8,59.9,63.5,59.8,63.2,59.7z M64.7,57.8c0-0.3-0.1-0.6-0.2-0.8c-0.1-0.2-0.3-0.3-0.5-0.3c-0.3,0-0.5,0.1-0.6,0.3
		c-0.1,0.2-0.2,0.4-0.3,0.8H64.7z"/>
	<path d="M71.8,59.7c-0.1-0.1-0.2-0.3-0.2-0.6l-0.1-0.8c0-0.3-0.1-0.5-0.3-0.6c-0.1-0.2-0.4-0.2-0.7-0.2h-0.5v2.1l0.6,0.1v0.1h-1.8
		v-0.1l0.6-0.1v-4.4l-0.6-0.1V55h1.7c0.7,0,1.1,0.1,1.4,0.3s0.4,0.5,0.4,0.9c0,0.7-0.4,1.1-1.2,1.2v0c0.3,0,0.6,0.2,0.7,0.3
		c0.2,0.2,0.3,0.4,0.4,0.7l0.1,0.5c0,0.2,0.1,0.4,0.1,0.5s0.1,0.1,0.2,0.1c0.1,0,0.1,0,0.2-0.1c0.1,0,0.1-0.1,0.2-0.1l0.1,0.1
		c-0.1,0.1-0.2,0.2-0.4,0.3c-0.1,0.1-0.3,0.1-0.4,0.1C72.1,59.9,71.9,59.8,71.8,59.7z M70.7,57.4c0.3,0,0.5-0.1,0.7-0.3
		c0.2-0.2,0.2-0.4,0.2-0.8v-0.1c0-0.7-0.4-1-1.1-1h-0.5v2.2H70.7z"/>
	<path d="M74.3,59.7c-0.2-0.1-0.2-0.3-0.2-0.6c0-0.4,0.2-0.6,0.5-0.8c0.3-0.2,0.7-0.2,1.1-0.2H76v-0.5c0-0.2,0-0.4-0.1-0.5
		c0-0.1-0.1-0.2-0.2-0.2c-0.1,0-0.2-0.1-0.4-0.1c-0.2,0-0.3,0-0.4,0.1s-0.1,0.2-0.1,0.3c0,0.1,0.1,0.2,0.2,0.2c0,0.1,0,0.2-0.1,0.3
		c-0.1,0.1-0.2,0.1-0.3,0.1c-0.1,0-0.2,0-0.3-0.1c-0.1-0.1-0.1-0.2-0.1-0.3c0-0.2,0.1-0.4,0.3-0.6c0.2-0.1,0.5-0.2,0.9-0.2
		c0.8,0,1.2,0.3,1.2,1v1.7c0,0.1,0,0.2,0.1,0.2c0,0,0.1,0.1,0.2,0.1c0.1,0,0.1,0,0.2-0.1c0,0,0.1-0.1,0.1-0.2h0.1
		c0,0.1,0,0.2-0.1,0.3s-0.2,0.1-0.4,0.1c-0.2,0-0.3-0.1-0.5-0.2S76,59.5,76,59.2c-0.1,0.2-0.2,0.4-0.4,0.5c-0.2,0.1-0.4,0.2-0.7,0.2
		C74.7,59.9,74.5,59.8,74.3,59.7z M75.6,59.5c0.1-0.1,0.2-0.2,0.3-0.3C76,59.1,76,59,76,58.8v-0.6h-0.4c-0.3,0-0.6,0.1-0.7,0.2
		s-0.2,0.4-0.2,0.6c0,0.2,0.1,0.4,0.2,0.5c0.1,0.1,0.3,0.1,0.5,0.1C75.4,59.6,75.5,59.6,75.6,59.5z"/>
	<path d="M78.1,59.7l0.4-0.1v-2.7l-0.4-0.1v-0.1h1v0.6c0.1-0.2,0.3-0.3,0.5-0.4s0.4-0.2,0.6-0.2c0.2,0,0.4,0.1,0.6,0.2
		c0.2,0.1,0.3,0.3,0.3,0.5c0.1-0.2,0.3-0.4,0.5-0.5c0.2-0.1,0.4-0.2,0.6-0.2c0.3,0,0.5,0.1,0.7,0.2c0.2,0.1,0.2,0.4,0.2,0.6v2.1
		l0.4,0.1v0.1h-1.4v-0.1l0.4-0.1v-2.1c0-0.2,0-0.4-0.1-0.5c-0.1-0.1-0.2-0.2-0.4-0.2c-0.2,0-0.3,0.1-0.5,0.2
		c-0.2,0.1-0.3,0.3-0.4,0.4v2.2l0.4,0.1v0.1h-1.3v-0.1l0.4-0.1v-2.1c0-0.2,0-0.4-0.1-0.5c-0.1-0.1-0.2-0.2-0.4-0.2
		c-0.2,0-0.3,0.1-0.5,0.2c-0.2,0.1-0.3,0.3-0.4,0.4v2.2l0.4,0.1v0.1h-1.4V59.7z"/>
	<path d="M84.6,59.7l0.4-0.1v-2.7l-0.4-0.1v-0.1h1v0.6c0.1-0.2,0.3-0.3,0.5-0.4s0.4-0.2,0.6-0.2c0.2,0,0.4,0.1,0.6,0.2
		c0.2,0.1,0.3,0.3,0.3,0.5c0.1-0.2,0.3-0.4,0.5-0.5c0.2-0.1,0.4-0.2,0.6-0.2c0.3,0,0.5,0.1,0.7,0.2c0.2,0.1,0.2,0.4,0.2,0.6v2.1
		l0.4,0.1v0.1h-1.4v-0.1l0.4-0.1v-2.1c0-0.2,0-0.4-0.1-0.5c-0.1-0.1-0.2-0.2-0.4-0.2c-0.2,0-0.3,0.1-0.5,0.2
		c-0.2,0.1-0.3,0.3-0.4,0.4v2.2l0.4,0.1v0.1h-1.3v-0.1l0.4-0.1v-2.1c0-0.2,0-0.4-0.1-0.5c-0.1-0.1-0.2-0.2-0.4-0.2
		c-0.2,0-0.3,0.1-0.5,0.2c-0.2,0.1-0.3,0.3-0.4,0.4v2.2l0.4,0.1v0.1h-1.4V59.7z"/>
</g>
<g>
	<path d="M85.5,84.4c-0.9-0.3-1.5-0.6-2-1.3c-1.6-2-1.1-5.5-1-6.3V64.8c-0.4,0-0.8,0-1.2,0c-0.2,0-0.4,0-0.6-0.1v11.6
		c0,3.5-0.2,5.6-0.7,6.6c-0.8,1.6-2.2,2.4-4.3,2.4h-1.8V87h20.4v-1.7h-1.9C89.3,85.5,87,84.9,85.5,84.4z"/>
	<path d="M117.9,84.5c-1.4-0.5-2.3-1.3-3-1.7c-1.4-1-2.2-2-2.4-2.2c-0.4-0.5-0.8-0.9-1-1.3c-5.3-7.1-10.7-14.3-16-21.4
		c1.6,0,5.5-0.1,9.1-2.5c0.6-0.4,2.2-1.5,3.7-3.5c1-1.3,1.7-2.8,2.2-4.4s0.7-3.4,0.7-5.2c0-1.7-0.2-3.3-0.7-4.8
		c-0.4-1.5-1-2.8-1.8-4c-0.8-1.2-1.7-2.2-2.7-3.1c-1-0.9-2.2-1.6-3.4-2.1c-1.2-0.5-2.8-0.9-4.7-1.1S93.8,27,91.2,27H73.9v1.6h1.8
		c0.9,0,1.7,0.1,2.4,0.4c0.7,0.3,1.3,0.8,1.7,1.5c0.3,0.5,0.6,1.3,0.7,2.5c0.1,1.2,0.2,2.7,0.2,4.6v14.7c0.2,0,0.4-0.1,0.6-0.1
		c0.4,0,0.8,0,1.2,0V30.3c2.1,0,3.8,0,5,0c2.6-0.1,3.6-0.2,5.4,0c1.8,0.2,2.9,0.3,4.3,1c1.3,0.6,2.3,1.5,3.2,2.6
		c0.9,1.1,1.6,2.4,2.1,4c0.5,1.5,0.7,3.3,0.7,5.2c0,1.9-0.3,3.6-0.8,5.2c-0.6,1.6-1.4,3-2.5,4.1c-1.4,1.4-2.6,2-4.3,2.7
		c-0.8,0.4-1.9,0.8-3.2,1.1l-0.8,0.5c5.7,10.1,11.4,20.2,17.1,30.3h12.8v-1.7C120.1,85.1,118.9,84.9,117.9,84.5z"/>
</g>
</svg>
