<?xml version="1.0" encoding="utf-8"?>
<!-- Generator: Adobe Illustrator 26.3.1, SVG Export Plug-In . SVG Version: 6.00 Build 0)  -->
<svg version="1.1" id="Layer_1" xmlns="http://www.w3.org/2000/svg" xmlns:xlink="http://www.w3.org/1999/xlink" x="0px" y="0px"
	 viewBox="0 0 32 32" style="enable-background:new 0 0 32 32;" xml:space="preserve">
<path d="M2,0L0,2l4.4,6.2C4.8,8.7,5.4,9,6,9h0.1c0.5,0,1,0.2,1.4,0.6l5.3,5.3l-5.2,5.3c-3.2-0.9-6.5,0.9-7.5,4.1
	C0.1,24.9,0,25.4,0,26c0,3.3,2.7,6,6,6s6-2.7,6-6c0-0.6-0.1-1.1-0.2-1.7l5.3-5.2L19,21l-0.6,1.8c-0.2,0.7-0.1,1.5,0.5,2l6.5,6.5
	c0.8,0.8,2,0.8,2.8,0c0,0,0,0,0,0l3.2-3.2c0.8-0.8,0.8-2,0-2.8c0,0,0,0,0,0l-6.5-6.5c-0.5-0.5-1.3-0.7-2-0.5L21,19l-1.9-1.9l5.4-5.3
	c3.2,0.9,6.5-1,7.4-4.3C31.9,7,32,6.5,32,6c0-0.5-0.1-1.1-0.2-1.6l-4.3,4.3L24,8l-0.7-3.5l4.3-4.3c-3.2-0.9-6.5,1-7.4,4.2
	c-0.3,1-0.3,2.1,0,3.1l-5.3,5.4L9.6,7.6C9.2,7.2,9,6.7,9,6.2V6c0-0.6-0.3-1.3-0.8-1.6L2,0z M21.3,21.3c0.4-0.4,1-0.4,1.4,0
	c0,0,0,0,0,0l5.8,5.8c0.4,0.4,0.4,1,0,1.4c-0.4,0.4-1,0.4-1.4,0l-5.8-5.8C20.9,22.3,20.9,21.7,21.3,21.3
	C21.3,21.3,21.3,21.3,21.3,21.3z M6,22l0.9,0.5L8,22.5l0.6,0.9L9.5,24l0.1,1.1L10,26l-0.5,0.9L9.5,28l-0.9,0.6L8,29.5l-1.1,0.1L6,30
	l-0.9-0.5L4,29.5l-0.6-0.9L2.5,28l-0.1-1.1L2,26l0.5-0.9L2.5,24l0.9-0.6L4,22.5l1.1-0.1L6,22z"/>
</svg>
